<svg width="102" height="102" viewBox="0 0 102 102" fill="none" xmlns="http://www.w3.org/2000/svg">
<rect width="102" height="102" fill="#E5E5E5"/>
<g clip-path="url(#clip0_0_1)">
<path d="M2.57808 70.1409C8.86714 74.2659 16.1718 77.5002 22.3281 78.8752C26.1718 79.7502 28.2968 79.969 32.4843 79.969C37.2031 79.9846 39.6484 79.6721 44.2343 78.4846C49.0703 77.2346 51.8359 76.1409 61.8593 71.4846C67.0625 69.0784 69.8437 68.0627 73.3437 67.2971C75.164 66.9065 80.4062 66.9065 82.1718 67.2971C85.8203 68.1252 89.7421 69.7659 93.2656 71.9534C93.6718 72.2034 94.0468 72.4065 94.0937 72.4065C94.1953 72.4065 94.4609 71.0471 94.3984 70.844C94.3828 70.7815 94.0937 70.5784 93.7578 70.3752C93.4218 70.1877 93.1406 70.0159 93.1328 69.9846C93.1093 69.969 93.3437 68.4846 93.375 68.3909C93.3828 68.3752 93.664 68.5315 93.9921 68.7346C94.3281 68.9534 94.625 69.1252 94.664 69.1252C94.7187 69.1252 95.0859 66.9377 95.039 66.844C95 66.7659 92.2343 65.219 92.125 65.219C92.0625 65.219 92.0156 65.1565 92.0156 65.0627C92.0156 64.9065 92.3593 61.969 93.5703 51.7346C93.875 49.1877 94.3671 45.0315 94.664 42.5159C94.9687 40.0159 95.3515 36.719 95.5312 35.219C95.7109 33.719 95.8671 32.3752 95.8906 32.219C95.9218 32.0002 96.0312 32.0159 96.9218 32.4846C97.4687 32.7659 98.4218 33.2971 99.039 33.6565C99.6562 34.0002 100.172 34.2659 100.187 34.2346C100.258 34.094 100.43 32.719 100.383 32.6565C100.359 32.6252 100.055 32.4534 99.7187 32.2815C99.3828 32.1096 99.1015 31.9377 99.0859 31.9065C99.0234 31.7971 99.2578 30.469 99.3437 30.4065C99.3906 30.3752 99.6875 30.5002 100.008 30.6721C100.32 30.8596 100.617 31.0002 100.656 31.0002C100.695 31.0002 100.773 30.7034 100.82 30.3284C100.875 29.969 100.93 29.5627 100.961 29.4221C101 29.2346 100.914 29.1252 100.594 28.9377C93.5468 24.8284 89.3593 23.2502 82.7187 22.219C81.0234 21.969 75.1484 21.9534 73.3046 22.219C69.8125 22.719 66.5 23.5471 62.8359 24.844C60.0625 25.8284 58.6328 26.4377 50.8046 29.9846C43.4453 33.3127 40.3203 34.3752 36 34.9846C28.0937 36.094 19.625 33.5159 9.64058 26.9846C8.92183 26.5159 8.30464 26.1877 8.26558 26.2659C8.2187 26.3752 7.32808 31.5002 7.32808 31.6877C7.32808 31.719 7.49995 31.8752 7.71089 32.0159L8.0937 32.2659L5.4062 48.3752C3.92964 57.2346 2.71089 64.5002 2.69527 64.5315C2.67964 64.5627 2.49995 64.4846 2.29683 64.344C2.08589 64.2034 1.89839 64.1409 1.86714 64.219C1.80464 64.3596 1.54683 65.7971 1.54683 66.0159C1.54683 66.0784 1.63277 66.1721 1.73433 66.219L1.92183 66.3127L1.79683 67.1096C1.67964 67.844 1.6562 67.8909 1.46089 67.8127C1.27339 67.7346 1.23433 67.7971 1.12495 68.3596C1.05464 68.7034 0.999954 69.0002 0.999954 69.0471C0.999954 69.0784 1.71089 69.5784 2.57808 70.1409ZM2.63277 67.4377L2.7187 66.8284L3.51558 67.2659C3.95308 67.5159 4.32027 67.7346 4.33589 67.7659C4.3437 67.7971 4.30464 68.1721 4.24214 68.6096L4.12495 69.4065L3.30464 68.9221C2.73433 68.594 2.49214 68.3909 2.51558 68.2502C2.53902 68.1409 2.5937 67.7815 2.63277 67.4377ZM5.07808 68.8909C5.14839 68.3752 5.20308 68.2034 5.29683 68.2502C5.35933 68.2971 5.71089 68.4846 6.07808 68.6721C6.44527 68.8596 6.75777 69.0471 6.77339 69.0627C6.81245 69.1252 6.61714 70.6877 6.57027 70.6877C6.4062 70.6877 4.98433 69.8284 4.98433 69.7346C4.98433 69.6565 5.02339 69.2815 5.07808 68.8909ZM7.4062 61.7034C7.79683 59.1252 8.39839 55.219 8.73433 53.0315C9.07027 50.844 9.8437 45.7815 10.4531 41.7815C11.0625 37.7815 11.5703 34.5002 11.5859 34.469C11.5937 34.4377 12.25 34.7815 13.039 35.2034C14.8906 36.219 17.0234 37.2502 18.6953 37.9377C20.1171 38.5159 23.2421 39.594 23.5234 39.594C23.9375 39.6096 23.9843 38.9065 22.4453 56.3284C21.6484 65.3752 20.9765 72.8284 20.9531 72.8596C20.8515 73.0627 16.6796 71.6877 13.9296 70.5471C11.7578 69.6409 10.3828 68.9846 8.30464 67.8909C6.49995 66.9221 6.60152 67.0002 6.6562 66.6721C6.67964 66.5159 7.01558 64.2815 7.4062 61.7034ZM7.56245 70.0471L7.64058 69.469L8.44527 69.8752C8.88277 70.094 9.24995 70.2815 9.26558 70.2971C9.28902 70.344 9.11714 71.8127 9.08589 71.9065C9.06245 71.9534 8.70308 71.7815 7.77339 71.2971C7.46089 71.1252 7.42964 70.9846 7.56245 70.0471ZM8.6562 29.1565L8.74995 28.5471L9.4687 29.0002C9.85933 29.2502 10.2187 29.4846 10.2734 29.5159C10.3437 29.5627 10.3359 29.7659 10.2421 30.3284C10.1718 30.7346 10.1093 31.1096 10.0937 31.1252C10.0859 31.1565 9.7187 30.9534 9.28902 30.6721C8.78902 30.344 8.50777 30.0784 8.5312 29.969C8.55464 29.8596 8.60933 29.5002 8.6562 29.1565ZM10.0312 71.4065C10.0546 71.094 10.1015 70.8127 10.1328 70.7815C10.1718 70.719 10.6328 70.9065 11.5937 71.3909C11.75 71.4534 11.7578 71.5159 11.6796 72.2502C11.6406 72.6721 11.5625 73.0315 11.5156 73.0315C11.4687 73.0315 11.0859 72.8752 10.664 72.6877C10.1328 72.4534 9.91402 72.2971 9.93745 72.1565C9.96089 72.0471 9.99995 71.7034 10.0312 71.4065ZM11.1875 30.1096C11.2031 30.0627 12.7265 30.9534 12.7578 31.0315C12.8203 31.1565 12.6093 32.5627 12.5234 32.5627C12.4296 32.5627 11.0703 31.7815 10.9843 31.6877C10.9453 31.6409 11.1171 30.3127 11.1875 30.1096ZM12.5312 72.3909C12.5703 71.9221 12.6171 71.7971 12.7109 71.844C12.7812 71.8909 13.1328 72.0315 13.5 72.1721C13.8671 72.3284 14.1875 72.469 14.2109 72.5002C14.2578 72.5471 14.1406 73.969 14.0859 74.094C14.0703 74.1252 13.6875 74.0002 13.2265 73.7971C12.5937 73.5315 12.4062 73.3909 12.4453 73.219C12.4687 73.1096 12.5078 72.7346 12.5312 72.3909ZM13.5156 32.1721C13.5859 31.6565 13.6406 31.4846 13.7343 31.5471C13.7968 31.5784 14.1562 31.7659 14.5312 31.9534C15.2812 32.3127 15.2812 32.3284 15.1328 33.3909C15.0703 33.844 15.0234 33.969 14.9218 33.9065C14.8515 33.8596 14.4843 33.6721 14.1015 33.4846C13.7265 33.2971 13.4218 33.094 13.4218 33.0159C13.4218 32.9377 13.4609 32.5627 13.5156 32.1721ZM15.1796 72.8752C15.2968 72.8752 16.5468 73.3284 16.6718 73.4221C16.7343 73.4534 16.7421 73.6877 16.6953 74.219C16.6562 74.6252 16.6093 74.9846 16.5937 75.0159C16.5625 75.0784 15.2343 74.6565 15.0156 74.5159C14.8906 74.4377 15.0468 72.8752 15.1796 72.8752ZM16.0156 33.3284C16.0781 32.8752 16.1406 32.7346 16.2265 32.7971C16.2968 32.8284 16.6484 33.0002 17.0078 33.1721C17.3671 33.344 17.6718 33.5159 17.6875 33.5471C17.7656 33.7034 17.5468 35.2034 17.4609 35.1409C17.4062 35.1096 17.039 34.9221 16.6406 34.7502C15.8593 34.3752 15.8515 34.3752 16.0156 33.3284ZM17.6015 73.7971C17.6171 73.7502 17.9921 73.8284 18.4375 73.969L19.2421 74.219L19.2187 74.9221C19.2031 75.2971 19.1562 75.6721 19.125 75.7502C19.0859 75.8284 18.7812 75.7971 18.4062 75.6877C17.414 75.4065 17.4609 75.4534 17.5234 74.6252C17.5546 74.219 17.5937 73.844 17.6015 73.7971ZM18.5 34.4221L18.5781 33.8752L19.375 34.2034C19.8593 34.4065 20.1796 34.6096 20.1718 34.719C20.164 34.8284 20.1562 35.094 20.1484 35.3284C20.125 36.1565 20.0546 36.219 19.5 36.0159C18.3437 35.5627 18.3437 35.5627 18.5 34.4221ZM20.1015 74.6565C20.1171 74.5315 20.3281 74.5471 20.8593 74.6877C21.2578 74.7971 21.6328 74.8909 21.6875 74.9065C21.7734 74.9065 21.7812 75.094 21.7421 75.719C21.7109 76.1721 21.6796 76.5627 21.664 76.594C21.6484 76.6252 20.539 76.3596 20.2031 76.219C20 76.1409 19.9843 76.094 20.0312 75.4846C20.0546 75.1252 20.0859 74.7502 20.1015 74.6565ZM21.0468 34.9221C21.0625 34.8909 21.4218 34.9846 21.8437 35.1252C22.2656 35.2659 22.6328 35.3752 22.664 35.3752C22.7265 35.3752 22.6406 36.8127 22.5703 36.969C22.5234 37.0784 21.289 36.7346 21.0156 36.5471C20.9375 36.4846 20.9296 36.2815 20.9687 35.7346C20.9921 35.3127 21.0312 34.9534 21.0468 34.9221ZM22.6171 75.5471C22.664 75.1877 22.6796 75.1877 23.2968 75.2971C24.2656 75.4534 24.2812 75.469 24.2812 76.1565C24.2812 77.2034 24.2812 77.2034 23.4765 77.0471C23.0859 76.9846 22.7109 76.8909 22.6562 76.8596C22.5546 76.7815 22.5312 76.1565 22.6171 75.5471ZM23.5 36.3909C23.5078 35.719 23.5703 35.6877 24.3984 35.8909L25.1796 36.094L25.1562 36.8596C25.1484 37.2815 25.125 37.6565 25.1015 37.6877C25.0781 37.7346 24.6953 37.6721 24.2343 37.5627C23.4609 37.3752 23.414 37.344 23.4531 37.0315C23.4765 36.844 23.5 36.5627 23.5 36.3909ZM25.1406 76.1877V75.6721L25.9375 75.7815C26.3828 75.8284 26.7734 75.9377 26.8046 76.0002C26.8359 76.0627 26.8437 76.4534 26.8203 76.8752L26.7656 77.6409L26.1718 77.5315C25.8359 77.4846 25.4531 77.4221 25.3046 77.4221C25.0703 77.4065 25.0468 77.3596 25.0937 77.0471C25.1171 76.8596 25.1406 76.469 25.1406 76.1877ZM26.75 56.8127L27.6796 40.5315L28.8125 40.6409C30.8046 40.8596 35.0312 40.7659 36.8984 40.469C37.8437 40.3127 38.6484 40.1721 38.6953 40.1565C38.7343 40.1565 38.8281 42.1565 38.914 45.1409C39.4296 63.1877 39.7265 73.7346 39.7109 73.7815C39.7031 73.7971 38.9765 73.9221 38.1015 74.0471C34.8828 74.5315 28.8671 74.5159 26.289 74.0159C25.7656 73.9221 25.75 73.9065 25.789 73.5159C25.8125 73.2971 26.2421 65.7815 26.75 56.8127ZM26.0546 36.8909L26.1015 36.2971L26.6171 36.3909C26.8984 36.4377 27.2734 36.5159 27.4453 36.5627L27.7656 36.6409L27.7187 37.4534C27.6875 38.1409 27.6562 38.2659 27.5234 38.2346C25.8046 37.9846 25.9531 38.1096 26.0546 36.8909ZM27.7734 76.094C27.8281 76.1096 28.2109 76.1252 28.6171 76.1252L29.3593 76.1565V77.0159V77.8752H28.789C28.4843 77.8752 28.0937 77.8284 27.9296 77.7815L27.6328 77.6721L27.6562 76.8752C27.6718 76.3596 27.7109 76.0784 27.7734 76.094ZM29.1406 36.7815C29.4531 36.7815 29.8437 36.8284 30.0078 36.8752L30.3046 36.9846L30.2812 37.7815C30.2578 38.5002 30.2421 38.5784 30.0781 38.5627C29.9843 38.5627 29.6093 38.5471 29.2421 38.5315L28.5781 38.5002V37.6409V36.7815H29.1406ZM31.0781 76.3127H31.9375V77.1721V78.0315H31.0781H30.2187V77.1721V76.3127H31.0781ZM31.1562 37.4377V36.9377H31.9765H32.7968V37.7971V38.6565H31.9296C31.0625 38.6565 31.0625 38.6565 31.1093 38.2971C31.1328 38.1096 31.1562 37.719 31.1562 37.4377ZM33.6171 76.3127H34.4375V76.9221C34.4375 77.2659 34.4609 77.6409 34.4843 77.7815C34.5234 78.0002 34.4218 78.0315 33.664 78.0315H32.7968V77.1721V76.3127H33.6171ZM34.2734 36.9377C34.6093 36.9377 35 36.8909 35.1328 36.844L35.375 36.7346V37.594V38.4534L35.0781 38.5627C34.9218 38.6096 34.5312 38.6565 34.2187 38.6565H33.6562V37.7971V36.9377H34.2734ZM35.8593 76.3127C36.1718 76.3127 36.5625 76.2659 36.7187 76.219L37.0156 76.1096V76.969V77.8284L36.6562 77.9377C36.4531 77.9846 36.0703 78.0315 35.7968 78.0315H35.2968V77.1721V76.3127H35.8593ZM36.5625 36.719C36.75 36.6721 37.1171 36.6096 37.375 36.5627L37.8593 36.4846L37.9062 36.969C38.0078 38.0159 37.9765 38.1409 37.6171 38.2502C37.3359 38.3284 36.4687 38.3909 36.289 38.3596C36.2578 38.344 36.2343 38.0002 36.2343 37.5784V36.7971L36.5625 36.719ZM38.2031 76.094C38.3906 76.0471 38.7578 75.9846 39.0234 75.9377C39.5546 75.8752 39.5937 75.9377 39.5937 77.0315C39.5937 77.469 39.5625 77.5315 39.3359 77.6096C39.125 77.6877 38.1328 77.7659 37.9296 77.7346C37.8984 77.719 37.875 77.3752 37.875 76.9534V76.1721L38.2031 76.094ZM39.0234 36.2659C39.1875 36.219 39.5781 36.1252 39.8828 36.0627L40.4531 35.9534L40.4609 36.6096C40.4687 36.9534 40.4765 37.344 40.4843 37.4377C40.4921 37.5627 40.3203 37.6721 40.0234 37.7502C39.7656 37.8127 39.3906 37.9065 39.1875 37.9534C38.8359 38.0315 38.8203 38.0315 38.789 37.6096C38.7031 36.4377 38.7187 36.3596 39.0234 36.2659ZM41.1718 75.5784C41.6171 75.5002 42 75.4846 42.0234 75.5315C42.0546 75.5784 42.0937 75.9377 42.1171 76.3284C42.164 77.0627 42.164 77.0627 41.914 77.1409C41.7734 77.1877 41.3906 77.2815 41.0625 77.344L40.4609 77.4377L40.4296 76.9221C40.3515 75.6252 40.289 75.7346 41.1718 75.5784ZM41.2812 35.6877C41.3125 35.6877 41.6796 35.5784 42.1093 35.4377C42.539 35.2971 42.8984 35.219 42.914 35.2502C42.9218 35.2815 42.9609 35.6565 42.9921 36.094L43.039 36.8752L42.2343 37.1252C41.789 37.2659 41.414 37.344 41.3984 37.3127C41.3671 37.2502 41.2578 36.2815 41.2421 35.8752C41.2421 35.7815 41.2578 35.6877 41.2812 35.6877ZM42.6562 39.0471C42.7578 39.0159 43.3593 38.7971 44.0078 38.5627C46.2031 37.8127 49.039 36.6252 53.6796 34.5002C54.2031 34.2659 54.6328 34.1409 54.6718 34.219C54.7031 34.2971 54.9609 36.3596 55.2421 38.8127C55.5234 41.2659 56.3203 48.1565 57.0156 54.1252C57.7109 60.094 58.3281 65.469 58.3984 66.0471C58.4609 66.6252 58.5 67.1409 58.4765 67.1877C58.3984 67.344 54.6562 69.0315 51.9375 70.1409C49.1328 71.2815 44.4765 72.844 44.3906 72.6877C44.3593 72.6252 42.5234 40.4534 42.4921 39.4065C42.4843 39.2346 42.5546 39.094 42.6562 39.0471ZM43.0468 75.219C43.1015 75.2034 43.4687 75.1096 43.8671 75.0002L44.5781 74.7971L44.625 75.2659C44.7109 76.1409 44.6796 76.4534 44.4921 76.5315C44.1093 76.7034 43.0703 76.9065 43.0156 76.844C42.9062 76.7034 42.9453 75.219 43.0468 75.219ZM43.7578 34.9065C43.7656 34.9065 44.1406 34.7659 44.5859 34.594C45.039 34.4221 45.4062 34.2971 45.414 34.3284C45.4218 34.344 45.4609 34.7034 45.5078 35.1096C45.6015 36.0002 45.6718 35.9065 44.6718 36.2971L43.9296 36.5784L43.8359 35.8596C43.7421 35.0627 43.7265 34.9065 43.7578 34.9065ZM45.5859 74.5471C45.664 74.5002 46.0234 74.3752 46.3828 74.2815C47.1093 74.0627 47.1718 74.1096 47.1718 75.0159C47.1718 75.2971 47.1796 75.5784 47.1875 75.6409C47.2109 75.7659 46.2031 76.1252 45.789 76.1409C45.5937 76.1565 45.539 76.0784 45.5078 75.7971C45.4296 74.9846 45.4531 74.6096 45.5859 74.5471ZM47.0703 33.5784C47.4687 33.4221 47.8203 33.2971 47.8515 33.2971C47.8906 33.2971 47.9531 33.6565 48 34.094L48.0859 34.8752L47.5312 35.1252C47.2265 35.2659 46.8515 35.4221 46.6953 35.469L46.414 35.5627L46.3359 34.8127C46.2968 34.3909 46.2812 34.0002 46.3046 33.9534C46.3281 33.8909 46.6796 33.7346 47.0703 33.5784ZM48.7734 73.469C49.1953 73.3127 49.5703 73.2502 49.6015 73.3127C49.6328 73.3752 49.6796 73.7502 49.7031 74.1409L49.7578 74.8596L49.0234 75.1096C48.0468 75.469 48.0468 75.469 48.0078 74.8596C47.9375 73.7502 47.9218 73.7659 48.7734 73.469ZM49.0234 32.7346C49.7031 32.3752 50.3359 32.1252 50.375 32.1877C50.4375 32.3284 50.5859 33.6721 50.539 33.719C50.4687 33.8127 49.125 34.4377 49.0156 34.4377C48.9296 34.4377 48.8125 33.7815 48.7421 33.0002C48.7421 32.9377 48.8671 32.8127 49.0234 32.7346ZM50.5859 72.8127C51.0625 72.5471 52.0468 72.2502 52.0937 72.3596C52.1328 72.4221 52.1796 72.7971 52.2109 73.1877L52.2578 73.8909L51.4375 74.2034L50.6093 74.5159L50.539 73.8909C50.4375 72.969 50.4375 72.9065 50.5859 72.8127ZM52.0468 31.2971L52.8671 30.8909L52.9531 31.6565C53.0078 32.0784 53.0312 32.469 53 32.5159C52.9531 32.6096 51.4531 33.3596 51.4218 33.2971C51.3906 33.2346 51.25 32.1721 51.2421 31.9377C51.2343 31.7502 51.4453 31.594 52.0468 31.2971ZM53.75 71.4846C54.5546 71.1409 54.664 71.1721 54.6718 71.719C54.6718 71.8127 54.6953 72.1096 54.7187 72.3596L54.7656 72.8127L54.1093 73.094C53.7578 73.2502 53.3828 73.4065 53.2968 73.4534C53.1562 73.5159 53.1171 73.4221 53.0468 72.9221C52.8984 71.8127 52.8828 71.8596 53.75 71.4846ZM54.4765 30.1096C54.8593 29.9221 55.2187 29.7502 55.2734 29.7502C55.3515 29.7502 55.5859 31.2815 55.5234 31.3752C55.4843 31.4221 54.0234 32.094 53.9531 32.094C53.875 32.094 53.7421 31.1565 53.7578 30.7815C53.7734 30.5315 53.9062 30.4065 54.4765 30.1096ZM56.2421 70.3909C56.8593 70.1096 57.0468 70.0784 57.0937 70.219C57.1562 70.4221 57.2734 71.6409 57.2343 71.6877C57.1484 71.7971 55.6562 72.3909 55.625 72.3284C55.5859 72.2502 55.4687 71.3284 55.4609 70.9846C55.4531 70.7971 55.6406 70.6565 56.2421 70.3909ZM56.914 28.9534C57.3359 28.7659 57.7187 28.5784 57.7656 28.5471C57.8203 28.5159 57.8828 28.8284 57.9375 29.3127C57.9765 29.7659 58.0078 30.1565 58 30.1721C57.9921 30.1877 57.625 30.3752 57.1875 30.5784L56.3906 30.9534L56.3046 30.3127C56.2421 29.7659 56.1953 29.469 56.164 29.3284C56.1562 29.3127 56.5 29.1565 56.914 28.9534ZM58.6484 69.2971C59.0312 69.1096 59.3906 68.969 59.4609 68.969C59.625 68.969 59.7968 70.3752 59.6562 70.5471C59.6015 70.6252 59.5156 70.6877 59.4765 70.6877C59.4296 70.6877 59.1093 70.8284 58.7578 70.9846L58.1093 71.2815L58.039 70.7815C57.875 69.6721 57.8906 69.6565 58.6484 69.2971ZM59.4375 27.8127C59.8046 27.6565 60.1562 27.5002 60.2265 27.469C60.3281 27.4221 60.375 27.5784 60.4375 28.219C60.4765 28.6721 60.5078 29.0627 60.5 29.0784C60.4765 29.1252 59.0234 29.7502 58.9218 29.7502C58.8281 29.7502 58.6484 28.3284 58.7265 28.1721C58.75 28.1252 59.0703 27.9534 59.4375 27.8127ZM61.3906 31.1721C65.4609 29.5627 70.125 28.2346 72.4843 28.0002L72.914 27.969L72.9375 28.5784C73.0312 31.1565 74.289 60.2815 74.3203 60.7971C74.375 61.5627 74.5312 61.469 72.6015 61.8596C70.289 62.3284 67.3203 63.3284 64.0468 64.7346C63.2578 65.0784 62.5937 65.3284 62.5781 65.2971C62.5625 65.2659 62.2109 61.7346 61.8046 57.4534C61.3984 53.1721 60.6875 45.7034 60.2265 40.844C59.7656 35.9846 59.3906 32.0002 59.3906 31.9846C59.3984 31.969 60.2968 31.6096 61.3906 31.1721ZM61.1328 68.1721C61.5078 68.0002 61.875 67.8284 61.9453 67.7815C62.0468 67.7346 62.0859 67.844 62.125 68.2971C62.1562 68.6252 62.1953 69.0002 62.2187 69.1409C62.25 69.344 62.1093 69.469 61.4921 69.7502C61.0703 69.9377 60.6953 70.1096 60.6562 70.1252C60.5937 70.1409 60.375 68.6565 60.4218 68.5315C60.4296 68.5002 60.75 68.3284 61.1328 68.1721ZM61.9687 26.7815C62.3906 26.6096 62.7656 26.469 62.7968 26.469C62.8984 26.469 63.0234 28.0471 62.9218 28.1252C62.7812 28.219 61.6015 28.6565 61.4609 28.6565C61.3671 28.6565 61.3046 28.4377 61.2578 27.9065C61.2187 27.5002 61.1875 27.1565 61.1953 27.1409C61.2031 27.1096 61.5468 26.9534 61.9687 26.7815ZM63.6875 67.0315C64.5781 66.6721 64.5703 66.6565 64.6562 67.5159C64.7031 67.9221 64.7265 68.2815 64.7187 68.2971C64.6796 68.3752 63.3125 68.969 63.1796 68.969C63.0312 68.969 62.8593 67.5471 62.9921 67.3909C63.0312 67.3284 63.3437 67.1721 63.6875 67.0315ZM63.9062 26.0784C64.0078 26.0471 64.375 25.9065 64.7343 25.7971C65.3671 25.5784 65.375 25.5784 65.414 25.9065C65.4765 26.5784 65.5234 27.2502 65.5078 27.2502C65.5 27.2502 65.1953 27.3596 64.8281 27.4846C63.8906 27.8127 63.8281 27.7971 63.789 27.2815C63.7187 26.3127 63.7343 26.1565 63.9062 26.0784ZM65.4843 66.3127C65.5156 66.3127 66.5859 65.8909 66.914 65.7659C67.0625 65.7034 67.0937 65.7659 67.1328 66.2659C67.164 66.594 67.2031 66.969 67.2187 67.1096C67.25 67.3127 67.125 67.4221 66.5703 67.6252C65.5937 68.0159 65.5859 68.0159 65.5234 67.5627C65.4609 67.1252 65.4375 66.3127 65.4843 66.3127ZM67.0781 25.094C67.5234 24.969 67.8984 24.9065 67.914 24.9377C67.9218 24.969 67.9609 25.344 67.9921 25.7815L68.039 26.5627L67.3437 26.7502C66.3125 27.0315 66.3281 27.0315 66.289 26.344C66.2343 25.2815 66.2109 25.3284 67.0781 25.094ZM68.0078 65.3752C68.0468 65.3752 68.3984 65.2659 68.8046 65.1409C69.2109 65.0002 69.5703 64.9534 69.5937 65.0159C69.625 65.0784 69.6718 65.469 69.6953 65.8596L69.7421 66.5784L69.1015 66.7659C68.75 66.8752 68.3671 67.0002 68.25 67.0471C68.0625 67.1252 68.039 67.0784 68.0078 66.6096C67.9531 65.6565 67.9531 65.3752 68.0078 65.3752ZM69.0234 24.594C69.1484 24.594 69.5312 24.5471 69.8828 24.4846L70.5312 24.3909V25.2502V26.1096L69.7343 26.219C68.8359 26.344 68.8125 26.3284 68.8125 25.2502C68.8125 24.6409 68.8281 24.594 69.0234 24.594ZM71.2812 64.4377C71.7343 64.344 72.1171 64.2815 72.1328 64.3127C72.1484 64.344 72.1875 64.719 72.2187 65.1721L72.2656 65.969L71.5781 66.094C70.5156 66.2971 70.5781 66.3284 70.5234 65.5315C70.5 65.1409 70.4687 64.7815 70.4687 64.7346C70.4609 64.6877 70.8281 64.5471 71.2812 64.4377ZM72.3046 24.094L73.0156 24.0159L73.0703 24.7815C73.1015 25.2034 73.1015 25.594 73.0781 25.6409C73.0546 25.7034 72.664 25.7659 72.2187 25.8127L71.3984 25.8909L71.375 25.1252C71.3437 24.2034 71.3515 24.1877 72.3046 24.094ZM73.125 64.0471C73.1796 64.0159 73.5703 63.9534 73.9843 63.8909L74.75 63.7971V64.6409V65.4846L74.2187 65.5784C73.2734 65.7659 73.125 65.7346 73.0859 65.3284C73.0156 64.6252 73.0312 64.1096 73.125 64.0471ZM74.3906 23.969C74.664 23.969 75.0468 23.9221 75.25 23.8752L75.6093 23.7659V24.6565V25.5315H75.3125C75.1562 25.5315 74.789 25.5784 74.5 25.6252C73.9218 25.7346 73.914 25.7346 73.8984 24.5471L73.8906 23.969H74.3906ZM76.4687 63.6565H77.3281V64.5159V65.3752H76.4687H75.6093V64.5159V63.6565H76.4687ZM77.0859 23.8127C77.4218 23.8127 77.8125 23.8596 77.9453 23.9065C78.1796 24.0002 78.1875 24.0471 78.1875 24.7659V25.5315H77.3281H76.4687V24.6721V23.8127H77.0859ZM79.9218 27.6096C82.8906 27.7502 85.2343 28.1096 88.0703 28.9065C89.3046 29.2502 91.7187 30.0471 91.7578 30.1096C91.7656 30.1252 91.4765 33.5159 91.1171 37.6409C90.7578 41.7659 90.1093 49.2502 89.6718 54.2815C89.2343 59.2971 88.8671 63.4534 88.8437 63.4846C88.8281 63.5315 88.3046 63.3596 87.6953 63.1252C84.9062 62.0784 82.1953 61.4846 79.5156 61.3284L77.6796 61.2346L77.6406 51.9377C77.6171 46.8284 77.5937 39.2346 77.5781 35.0784L77.5625 27.5159L79.9218 27.6096ZM79.0546 63.6565C79.9218 63.6565 79.9218 63.6565 79.875 64.0002C79.8515 64.2034 79.8281 64.594 79.8281 64.8596V65.3752H79.0078H78.1875V64.5159V63.6565H79.0546ZM79.875 24.0159C80.3359 24.0627 80.7187 24.1409 80.7421 24.1721C80.7578 24.219 80.75 24.6096 80.7187 25.0627L80.664 25.8752L80.3828 25.7815C80.2265 25.7346 79.8671 25.6877 79.5703 25.6877H79.0468V24.7971V23.9221L79.875 24.0159ZM80.7578 63.9846C80.8125 63.8127 80.9765 63.7971 81.5937 63.8752C82.0156 63.9377 82.3828 64.0159 82.4062 64.0471C82.4296 64.0784 82.4296 64.469 82.414 64.9065L82.3906 65.7346L81.914 65.6252C81.6562 65.5784 81.2734 65.5315 81.0703 65.5315H80.6875V64.8596C80.6875 64.5002 80.7187 64.1096 80.7578 63.9846ZM81.5937 24.6252C81.6484 24.2346 81.7968 24.2034 82.7343 24.3909L83.2656 24.4846V25.3284V26.1877L82.4609 26.0784C82.0234 26.0159 81.6406 25.9377 81.6015 25.8909C81.539 25.8127 81.5312 25.1252 81.5937 24.6252ZM83.539 64.2502C84.0859 64.3596 84.9375 64.6096 84.9687 64.6721C84.9843 64.7034 84.9765 65.094 84.9453 65.5315C84.8906 66.2971 84.8828 66.3284 84.6796 66.2502C84.5703 66.2034 84.2812 66.1252 84.0468 66.0784C83.1796 65.8909 83.2187 65.9377 83.2656 65.0159C83.3046 64.219 83.3125 64.2034 83.539 64.2502ZM84.4375 24.719C85.1015 24.844 85.7812 25.0471 85.8203 25.1252C85.8437 25.1565 85.8359 25.5627 85.8046 26.0002C85.7578 26.6409 85.7265 26.7815 85.625 26.719C85.5468 26.6721 85.2421 26.594 84.9453 26.5471C84.0312 26.3909 84.0781 26.4377 84.125 25.5002L84.164 24.6721L84.4375 24.719ZM85.8671 64.969C85.9062 64.8909 87.2031 65.2815 87.4531 65.4534C87.5234 65.5002 87.5234 65.719 87.4687 66.2659C87.4218 66.6721 87.3828 67.0315 87.3671 67.0627C87.3593 67.0784 86.9921 66.9846 86.5468 66.844L85.75 66.5784L85.7812 65.8127C85.8046 65.3909 85.8437 65.0159 85.8671 64.969ZM86.7265 25.2815C86.7421 25.2502 88.375 25.719 88.3984 25.7502C88.414 25.7815 88.2656 27.2971 88.2343 27.3596C88.2109 27.4065 87.6171 27.2502 86.8671 27.0002L86.6093 26.9221L86.6562 26.1096C86.6875 25.6721 86.7187 25.2971 86.7265 25.2815ZM88.3906 65.8596C88.3984 65.844 88.7812 65.969 89.2343 66.1721C89.8906 66.469 90.0546 66.594 90.0234 66.7815C90.0078 66.9065 89.9687 67.2815 89.9375 67.594C89.914 67.9221 89.875 68.1877 89.8593 68.1877C89.8046 68.1877 88.3906 67.5627 88.2968 67.4846C88.2265 67.4534 88.2265 67.219 88.2812 66.6721C88.3281 66.2659 88.375 65.8909 88.3906 65.8596ZM89.2343 26.0471C89.2421 26.0315 89.6171 26.1409 90.0625 26.2815L90.8828 26.5627L90.8593 27.1877C90.8203 28.344 90.914 28.2971 89.6093 27.8596L89.125 27.6877L89.1718 26.8752C89.2031 26.4377 89.2265 26.0627 89.2343 26.0471ZM90.8515 67.2971C90.914 66.969 90.9296 66.9534 91.289 67.1721C91.4921 67.2815 91.8593 67.4846 92.1093 67.6252L92.5468 67.8752L92.4375 68.6096C92.375 69.0002 92.3125 69.3596 92.2968 69.3909C92.2812 69.4377 91.914 69.2659 91.4765 69.0315L90.6953 68.6096L90.7421 68.1252C90.7656 67.8596 90.8203 67.4846 90.8515 67.2971ZM91.75 27.2034C91.7968 26.8752 91.789 26.8752 92.5 27.1721C93.5234 27.594 93.4453 27.5002 93.3828 28.1565C93.289 29.2971 93.3593 29.2502 92.4375 28.8909L91.6171 28.5784L91.664 28.0315C91.6875 27.7346 91.7265 27.3596 91.75 27.2034ZM94.2109 28.6877L94.289 27.9065L94.9687 28.219C95.8671 28.6096 95.9218 28.6409 95.9218 28.8596C95.9218 29.344 95.75 30.219 95.6484 30.219C95.5 30.219 94.125 29.5784 94.125 29.5159C94.125 29.4846 94.164 29.1096 94.2109 28.6877ZM96.7109 29.6877L96.789 29.0315L97.5859 29.4065C98.0234 29.6252 98.3984 29.8127 98.414 29.844C98.4453 29.9065 98.2578 31.469 98.2187 31.469C98.1796 31.469 96.8671 30.844 96.7187 30.7502C96.6015 30.6877 96.6015 30.5471 96.7109 29.6877Z" fill="black"/>
</g>
<defs>
<clipPath id="clip0_0_1">
<rect width="100" height="100" fill="white" transform="translate(1.80521 101.792) rotate(-90.9154)"/>
</clipPath>
</defs>
</svg>
